<svg width="242" height="30" viewBox="0 0 242 30" fill="none" xmlns="http://www.w3.org/2000/svg">
<path d="M27.7305 17.9258C27.418 17.9648 26.9948 18.0299 26.4609 18.1211C25.9401 18.1992 25.5169 18.3164 25.1914 18.4727C24.8008 18.668 24.5208 18.9479 24.3516 19.3125C24.1953 19.6641 24.1172 20.0807 24.1172 20.5625V22.7109C24.1172 24.2734 24.1237 25.3281 24.1367 25.875C24.1628 26.4219 24.1888 26.8711 24.2148 27.2227C22.4831 28.0039 20.7578 28.6029 19.0391 29.0195C17.3203 29.4362 15.6341 29.6445 13.9805 29.6445C12.2096 29.6445 10.5039 29.3125 8.86328 28.6484C7.22266 27.9844 5.79036 27.0404 4.56641 25.8164C3.32943 24.5794 2.34635 23.0755 1.61719 21.3047C0.888021 19.5339 0.523438 17.5547 0.523438 15.3672C0.523438 13.2578 0.86849 11.3047 1.55859 9.50781C2.26172 7.69792 3.2513 6.12891 4.52734 4.80078C5.76432 3.4987 7.23568 2.48958 8.94141 1.77344C10.6602 1.04427 12.4961 0.679688 14.4492 0.679688C16.0117 0.679688 17.3724 0.86849 18.5312 1.24609C19.6901 1.6237 20.7122 2.07943 21.5977 2.61328L22.3984 1.28516H23.9609L24.1367 10.9727H22.5352C22.2617 9.90495 21.9232 8.85677 21.5195 7.82812C21.1159 6.78646 20.5951 5.85547 19.957 5.03516C19.319 4.21484 18.5378 3.5638 17.6133 3.08203C16.7018 2.58724 15.6081 2.33984 14.332 2.33984C12.9388 2.33984 11.6953 2.6263 10.6016 3.19922C9.50781 3.75911 8.55729 4.59896 7.75 5.71875C6.95573 6.79948 6.34375 8.14714 5.91406 9.76172C5.48438 11.3763 5.26953 13.1797 5.26953 15.1719C5.26953 16.9297 5.47786 18.5898 5.89453 20.1523C6.32422 21.7018 6.94271 23.043 7.75 24.1758C8.55729 25.3346 9.56641 26.2461 10.7773 26.9102C11.9883 27.5742 13.362 27.9062 14.8984 27.9062C16.0443 27.9062 17.0859 27.7305 18.0234 27.3789C18.974 27.0273 19.6445 26.6562 20.0352 26.2656C20.1393 25.5885 20.1914 24.9049 20.1914 24.2148C20.2044 23.5247 20.2109 22.9388 20.2109 22.457V20.9336C20.2109 20.3867 20.1328 19.9049 19.9766 19.4883C19.8333 19.0586 19.5273 18.7461 19.0586 18.5508C18.6289 18.3555 18.043 18.2122 17.3008 18.1211C16.5716 18.0169 15.9987 17.9518 15.582 17.9258V16.5H27.7305V17.9258ZM42.0469 29H29.5664V27.6133C29.918 27.5872 30.4258 27.5482 31.0898 27.4961C31.7539 27.444 32.2227 27.3659 32.4961 27.2617C32.9258 27.0924 33.2383 26.8646 33.4336 26.5781C33.6289 26.2786 33.7266 25.8685 33.7266 25.3477V5.26953C33.7266 4.8138 33.6549 4.4362 33.5117 4.13672C33.3685 3.82422 33.0299 3.5638 32.4961 3.35547C32.1055 3.19922 31.6107 3.05599 31.0117 2.92578C30.4258 2.78255 29.944 2.69792 29.5664 2.67188V1.28516H42.0469V2.67188C41.6432 2.6849 41.1615 2.73698 40.6016 2.82812C40.0417 2.90625 39.5534 3.01042 39.1367 3.14062C38.6419 3.29688 38.3099 3.55078 38.1406 3.90234C37.9714 4.25391 37.8867 4.64453 37.8867 5.07422V25.1328C37.8867 25.5625 37.9779 25.9466 38.1602 26.2852C38.3555 26.6107 38.681 26.8711 39.1367 27.0664C39.4102 27.1706 39.8529 27.2878 40.4648 27.418C41.0898 27.5352 41.6172 27.6003 42.0469 27.6133V29ZM72.0664 15.3086C72.0664 17.6654 71.6237 19.7096 70.7383 21.4414C69.8529 23.1732 68.7005 24.5924 67.2812 25.6992C65.849 26.806 64.2409 27.6328 62.457 28.1797C60.6732 28.7266 58.8307 29 56.9297 29H45.4453V27.6133C45.8229 27.6133 46.3112 27.5807 46.9102 27.5156C47.5221 27.4375 47.9258 27.3529 48.1211 27.2617C48.5117 27.0924 48.7917 26.8451 48.9609 26.5195C49.1432 26.181 49.2344 25.7773 49.2344 25.3086V5.30859C49.2344 4.86589 49.1562 4.46875 49 4.11719C48.8568 3.76562 48.5638 3.48568 48.1211 3.27734C47.7174 3.08203 47.2812 2.9388 46.8125 2.84766C46.3438 2.75651 45.9401 2.69792 45.6016 2.67188V1.28516H57.7109C59.3776 1.28516 61.0182 1.54557 62.6328 2.06641C64.2474 2.57422 65.6536 3.26432 66.8516 4.13672C68.4792 5.29557 69.7552 6.8125 70.6797 8.6875C71.6042 10.5625 72.0664 12.7695 72.0664 15.3086ZM67.2812 15.2891C67.2812 13.4271 67.0339 11.7474 66.5391 10.25C66.0443 8.73958 65.3216 7.42448 64.3711 6.30469C63.4727 5.23698 62.3659 4.39714 61.0508 3.78516C59.7487 3.17318 58.2969 2.86719 56.6953 2.86719C56.1615 2.86719 55.556 2.88021 54.8789 2.90625C54.2148 2.91927 53.7201 2.93229 53.3945 2.94531V24.2539C53.3945 25.4388 53.7396 26.2591 54.4297 26.7148C55.1198 27.1706 56.181 27.3984 57.6133 27.3984C59.2669 27.3984 60.7122 27.1055 61.9492 26.5195C63.1862 25.9336 64.1888 25.1198 64.957 24.0781C65.7643 22.9844 66.3503 21.7214 66.7148 20.2891C67.0924 18.8438 67.2812 17.1771 67.2812 15.2891ZM87.5938 29H75.1133V27.6133C75.4648 27.5872 75.9727 27.5482 76.6367 27.4961C77.3008 27.444 77.7695 27.3659 78.043 27.2617C78.4727 27.0924 78.7852 26.8646 78.9805 26.5781C79.1758 26.2786 79.2734 25.8685 79.2734 25.3477V5.26953C79.2734 4.8138 79.2018 4.4362 79.0586 4.13672C78.9154 3.82422 78.5768 3.5638 78.043 3.35547C77.6523 3.19922 77.1576 3.05599 76.5586 2.92578C75.9727 2.78255 75.4909 2.69792 75.1133 2.67188V1.28516H87.5938V2.67188C87.1901 2.6849 86.7083 2.73698 86.1484 2.82812C85.5885 2.90625 85.1003 3.01042 84.6836 3.14062C84.1888 3.29688 83.8568 3.55078 83.6875 3.90234C83.5182 4.25391 83.4336 4.64453 83.4336 5.07422V25.1328C83.4336 25.5625 83.5247 25.9466 83.707 26.2852C83.9023 26.6107 84.2279 26.8711 84.6836 27.0664C84.957 27.1706 85.3997 27.2878 86.0117 27.418C86.6367 27.5352 87.1641 27.6003 87.5938 27.6133V29ZM112.574 8.21875H111.109C110.836 7.1901 110.263 6.08984 109.391 4.91797C108.531 3.74609 107.704 3.10156 106.91 2.98438C106.507 2.93229 106.025 2.89323 105.465 2.86719C104.918 2.84115 104.293 2.82812 103.59 2.82812H98.9414V13.9609H102.125C103.089 13.9609 103.837 13.8633 104.371 13.668C104.905 13.4596 105.361 13.1471 105.738 12.7305C105.999 12.444 106.233 12.0013 106.441 11.4023C106.663 10.7904 106.806 10.1393 106.871 9.44922H108.355V20.3281H106.871C106.832 19.7552 106.695 19.1042 106.461 18.375C106.24 17.6458 105.999 17.1185 105.738 16.793C105.348 16.3112 104.853 15.9857 104.254 15.8164C103.668 15.6341 102.958 15.543 102.125 15.543H98.9414V25.0938C98.9414 25.5234 99.026 25.9076 99.1953 26.2461C99.3646 26.5846 99.6641 26.8581 100.094 27.0664C100.289 27.1576 100.712 27.2682 101.363 27.3984C102.014 27.5286 102.509 27.6003 102.848 27.6133V29H90.8359V27.6133C91.2266 27.5872 91.7474 27.5482 92.3984 27.4961C93.0495 27.431 93.4727 27.3529 93.668 27.2617C94.0586 27.0924 94.3385 26.8451 94.5078 26.5195C94.6901 26.181 94.7812 25.7773 94.7812 25.3086V5.30859C94.7812 4.87891 94.7096 4.5013 94.5664 4.17578C94.4232 3.83724 94.1237 3.5638 93.668 3.35547C93.3164 3.1862 92.8411 3.03646 92.2422 2.90625C91.6562 2.77604 91.1875 2.69792 90.8359 2.67188V1.28516H112.574V8.21875ZM143.082 2.67188C142.717 2.6849 142.184 2.76302 141.48 2.90625C140.777 3.04948 140.204 3.26432 139.762 3.55078C139.319 3.85026 139.013 4.46875 138.844 5.40625C138.674 6.34375 138.59 7.48958 138.59 8.84375V20.8945C138.59 22.431 138.271 23.7656 137.633 24.8984C136.995 26.0312 136.155 26.9622 135.113 27.6914C134.085 28.3945 132.997 28.8958 131.852 29.1953C130.719 29.5078 129.632 29.6641 128.59 29.6641C126.923 29.6641 125.439 29.4427 124.137 29C122.835 28.5703 121.741 27.9844 120.855 27.2422C119.983 26.5 119.326 25.6536 118.883 24.7031C118.44 23.7396 118.219 22.737 118.219 21.6953V5.30859C118.219 4.85286 118.141 4.47526 117.984 4.17578C117.841 3.86328 117.542 3.57682 117.086 3.31641C116.76 3.13411 116.344 2.99089 115.836 2.88672C115.328 2.76953 114.911 2.69792 114.586 2.67188V1.28516H126.129V2.67188C125.764 2.6849 125.302 2.74349 124.742 2.84766C124.195 2.95182 123.792 3.04948 123.531 3.14062C123.089 3.29688 122.789 3.55729 122.633 3.92188C122.49 4.28646 122.418 4.68359 122.418 5.11328V20.4258C122.418 21.168 122.496 21.9492 122.652 22.7695C122.822 23.5768 123.147 24.332 123.629 25.0352C124.137 25.7513 124.827 26.3372 125.699 26.793C126.572 27.2487 127.77 27.4766 129.293 27.4766C130.725 27.4766 131.923 27.2487 132.887 26.793C133.863 26.3372 134.632 25.7383 135.191 24.9961C135.725 24.293 136.103 23.5573 136.324 22.7891C136.546 22.0208 136.656 21.2461 136.656 20.4648V9.09766C136.656 7.65234 136.552 6.47396 136.344 5.5625C136.135 4.63802 135.829 4.03255 135.426 3.74609C134.97 3.42057 134.345 3.16667 133.551 2.98438C132.77 2.80208 132.171 2.69792 131.754 2.67188V1.28516H143.082V2.67188ZM162.574 16.2852C163.16 16.9362 163.59 17.6523 163.863 18.4336C164.15 19.2018 164.293 20.1003 164.293 21.1289C164.293 23.5768 163.388 25.5951 161.578 27.1836C159.768 28.7721 157.522 29.5664 154.84 29.5664C153.603 29.5664 152.366 29.3776 151.129 29C149.892 28.6094 148.824 28.1406 147.926 27.5938L147.086 29.0195H145.523L145.25 19.5273H146.832C147.158 20.6992 147.535 21.7604 147.965 22.7109C148.408 23.6484 148.987 24.5273 149.703 25.3477C150.38 26.1159 151.168 26.7279 152.066 27.1836C152.978 27.6393 154.033 27.8672 155.23 27.8672C156.129 27.8672 156.91 27.75 157.574 27.5156C158.251 27.2812 158.798 26.9492 159.215 26.5195C159.632 26.0898 159.938 25.5885 160.133 25.0156C160.341 24.4297 160.445 23.7591 160.445 23.0039C160.445 21.8971 160.133 20.8685 159.508 19.918C158.883 18.9544 157.952 18.2253 156.715 17.7305C155.868 17.3919 154.898 17.0208 153.805 16.6172C152.711 16.2005 151.767 15.8099 150.973 15.4453C149.41 14.7422 148.193 13.8242 147.32 12.6914C146.461 11.5456 146.031 10.0547 146.031 8.21875C146.031 7.16406 146.246 6.18099 146.676 5.26953C147.105 4.35807 147.717 3.54427 148.512 2.82812C149.267 2.15104 150.159 1.6237 151.188 1.24609C152.216 0.855469 153.29 0.660156 154.41 0.660156C155.686 0.660156 156.826 0.855469 157.828 1.24609C158.844 1.63672 159.768 2.09245 160.602 2.61328L161.402 1.28516H162.965L163.121 10.4844H161.539C161.253 9.42969 160.927 8.42057 160.562 7.45703C160.211 6.49349 159.749 5.62109 159.176 4.83984C158.616 4.08464 157.932 3.48568 157.125 3.04297C156.318 2.58724 155.328 2.35938 154.156 2.35938C152.919 2.35938 151.865 2.75651 150.992 3.55078C150.12 4.34505 149.684 5.3151 149.684 6.46094C149.684 7.65885 149.964 8.65495 150.523 9.44922C151.083 10.2305 151.897 10.875 152.965 11.3828C153.915 11.8385 154.846 12.2357 155.758 12.5742C156.682 12.8997 157.574 13.2513 158.434 13.6289C159.215 13.9674 159.964 14.3516 160.68 14.7812C161.409 15.2109 162.04 15.7122 162.574 16.2852ZM179.898 29H167.418V27.6133C167.77 27.5872 168.277 27.5482 168.941 27.4961C169.605 27.444 170.074 27.3659 170.348 27.2617C170.777 27.0924 171.09 26.8646 171.285 26.5781C171.48 26.2786 171.578 25.8685 171.578 25.3477V5.26953C171.578 4.8138 171.507 4.4362 171.363 4.13672C171.22 3.82422 170.882 3.5638 170.348 3.35547C169.957 3.19922 169.462 3.05599 168.863 2.92578C168.277 2.78255 167.796 2.69792 167.418 2.67188V1.28516H179.898V2.67188C179.495 2.6849 179.013 2.73698 178.453 2.82812C177.893 2.90625 177.405 3.01042 176.988 3.14062C176.493 3.29688 176.161 3.55078 175.992 3.90234C175.823 4.25391 175.738 4.64453 175.738 5.07422V25.1328C175.738 25.5625 175.829 25.9466 176.012 26.2852C176.207 26.6107 176.533 26.8711 176.988 27.0664C177.262 27.1706 177.704 27.2878 178.316 27.418C178.941 27.5352 179.469 27.6003 179.898 27.6133V29ZM205.758 4.56641C206.982 5.84245 207.939 7.38542 208.629 9.19531C209.319 10.9922 209.664 12.9844 209.664 15.1719C209.664 17.3724 209.312 19.3711 208.609 21.168C207.906 22.9648 206.93 24.4948 205.68 25.7578C204.469 27.0078 203.062 27.9714 201.461 28.6484C199.859 29.3255 198.154 29.6641 196.344 29.6641C194.417 29.6641 192.633 29.306 190.992 28.5898C189.365 27.8607 187.965 26.8516 186.793 25.5625C185.621 24.2995 184.697 22.7695 184.02 20.9727C183.355 19.1628 183.023 17.2292 183.023 15.1719C183.023 12.9193 183.375 10.9141 184.078 9.15625C184.781 7.38542 185.751 5.85547 186.988 4.56641C188.212 3.29036 189.632 2.3138 191.246 1.63672C192.874 0.959635 194.573 0.621094 196.344 0.621094C198.18 0.621094 199.911 0.966146 201.539 1.65625C203.167 2.34635 204.573 3.31641 205.758 4.56641ZM202.848 24.2148C203.577 23.0299 204.104 21.6888 204.43 20.1914C204.768 18.694 204.938 17.0208 204.938 15.1719C204.938 13.2708 204.749 11.526 204.371 9.9375C204.007 8.34896 203.466 6.99479 202.75 5.875C202.034 4.76823 201.135 3.90885 200.055 3.29688C198.974 2.67188 197.737 2.35938 196.344 2.35938C194.781 2.35938 193.453 2.71745 192.359 3.43359C191.266 4.14974 190.374 5.10677 189.684 6.30469C189.033 7.45052 188.544 8.79167 188.219 10.3281C187.906 11.8646 187.75 13.4792 187.75 15.1719C187.75 17.0469 187.919 18.7396 188.258 20.25C188.596 21.7604 189.13 23.1016 189.859 24.2734C190.562 25.4193 191.448 26.3177 192.516 26.9688C193.583 27.6068 194.859 27.9258 196.344 27.9258C197.737 27.9258 198.993 27.6003 200.113 26.9492C201.233 26.2982 202.145 25.3867 202.848 24.2148ZM241.578 2.67188C241.214 2.6849 240.654 2.78906 239.898 2.98438C239.143 3.17969 238.603 3.38151 238.277 3.58984C237.809 3.91536 237.49 4.54036 237.32 5.46484C237.164 6.38932 237.086 7.5612 237.086 8.98047V29.2734H235.387L218.59 6.59766V20.8945C218.59 22.4961 218.688 23.7266 218.883 24.5859C219.091 25.4453 219.404 26.0573 219.82 26.4219C220.12 26.7083 220.738 26.9753 221.676 27.2227C222.613 27.4701 223.232 27.6003 223.531 27.6133V29H212.164V27.6133C212.516 27.5872 213.108 27.4635 213.941 27.2422C214.775 27.0078 215.296 26.7995 215.504 26.6172C215.96 26.2526 216.272 25.6992 216.441 24.957C216.611 24.2018 216.695 22.9193 216.695 21.1094V7.45703C216.695 6.85807 216.591 6.25911 216.383 5.66016C216.174 5.0612 215.895 4.59896 215.543 4.27344C215.074 3.84375 214.436 3.47917 213.629 3.17969C212.835 2.86719 212.19 2.69792 211.695 2.67188V1.28516H219.605L235.191 22.418V9.23438C235.191 7.61979 235.087 6.38281 234.879 5.52344C234.671 4.65104 234.371 4.07161 233.98 3.78516C233.616 3.53776 233.017 3.29688 232.184 3.0625C231.363 2.82812 230.738 2.69792 230.309 2.67188V1.28516H241.578V2.67188Z" fill="white"/>
</svg>
